<?xml version="1.0" standalone="no"?>
<!DOCTYPE svg PUBLIC "-//W3C//DTD SVG 20010904//EN"
 "http://www.w3.org/TR/2001/REC-SVG-20010904/DTD/svg10.dtd">
<svg version="1.0" xmlns="http://www.w3.org/2000/svg"
 width="376.000000pt" height="222.000000pt" viewBox="0 0 376.000000 222.000000"
 preserveAspectRatio="xMidYMid meet">

<g transform="translate(0.000000,222.000000) scale(0.100000,-0.100000)"
fill="#000000" stroke="none">
<path d="M2700 2097 c0 -7 -6 -21 -12 -30 -12 -16 -15 -15 -42 8 -37 32 -54
32 -66 0 -13 -35 -37 -41 -77 -20 -26 14 -36 16 -45 7 -7 -7 -20 -12 -30 -12
-10 0 -18 -7 -18 -15 0 -18 1 -18 35 -5 31 12 61 -1 70 -29 3 -11 15 -22 26
-25 10 -4 28 -8 38 -12 15 -4 24 3 36 25 12 24 22 31 44 31 24 0 31 -5 36 -30
10 -45 29 -38 21 9 -4 28 -2 42 9 51 21 18 40 7 72 -41 l28 -42 -105 -97 -104
-98 53 -48 c30 -27 60 -53 67 -57 8 -4 14 -16 14 -27 0 -10 13 -28 29 -39 l29
-21 11 47 c9 42 8 51 -10 76 -18 25 -19 33 -9 80 6 29 14 58 19 66 14 22 37 6
45 -30 6 -29 7 -31 24 -17 26 23 42 11 42 -33 0 -53 16 -49 24 6 4 25 11 45
15 45 18 0 41 -39 41 -69 0 -22 13 -51 39 -87 l40 -55 -27 -45 c-26 -42 -29
-44 -76 -44 -44 0 -53 -4 -86 -40 -30 -33 -44 -40 -74 -40 -20 0 -45 5 -56 12
-10 7 -23 9 -27 4 -11 -11 26 -36 53 -36 13 0 26 -4 29 -10 11 -18 41 -11 66
16 36 38 76 56 109 49 50 -11 48 -78 -2 -72 -11 1 -25 -7 -32 -18 -15 -27 -27
-35 -52 -35 -18 0 -22 -7 -27 -45 -2 -25 -12 -54 -22 -65 -14 -15 -16 -29 -11
-63 5 -34 3 -47 -9 -57 -13 -11 -21 -8 -50 20 -26 25 -44 33 -77 35 -39 3 -47
0 -69 -28 -40 -51 -40 -54 -13 -86 18 -22 35 -31 55 -31 22 0 32 -6 39 -24 5
-13 18 -27 29 -31 13 -4 21 -16 23 -38 3 -32 3 -32 65 -35 42 -2 72 2 92 13
43 22 79 19 114 -11 24 -20 38 -25 66 -21 37 4 91 -16 91 -33 0 -6 22 -26 49
-45 34 -25 59 -54 80 -96 28 -53 31 -63 21 -98 -7 -28 -18 -42 -39 -51 -16 -6
-41 -25 -57 -41 -15 -16 -36 -29 -47 -29 -17 0 -19 -5 -15 -45 5 -41 3 -46
-18 -51 -13 -3 -26 -16 -30 -27 -11 -33 -55 -100 -82 -124 -28 -24 -24 -60 5
-49 131 51 362 259 444 401 58 101 103 216 124 324 26 125 17 335 -19 455 -46
152 -134 316 -170 316 -8 0 -18 -9 -21 -21 -4 -11 -21 -29 -37 -39 -28 -17
-33 -17 -54 -3 -45 29 -28 83 25 83 10 0 26 9 35 19 16 18 16 21 1 45 -9 14
-41 45 -70 70 l-53 46 -16 -25 c-9 -13 -16 -30 -16 -37 0 -7 -7 -22 -16 -33
-14 -18 -16 -18 -42 -3 -39 23 -76 94 -82 158 l-5 55 -84 34 c-83 33 -239 71
-293 71 -17 0 -28 -5 -28 -13z"/>
<path d="M883 1574 c-34 -17 -63 -66 -63 -107 0 -70 42 -117 105 -117 61 0 75
14 75 70 l0 50 -35 0 c-19 0 -35 -4 -35 -10 0 -5 9 -10 21 -10 17 0 20 -5 17
-37 -3 -35 -6 -38 -35 -41 -73 -7 -112 98 -62 163 19 24 27 26 70 23 51 -3 69
14 27 26 -35 9 -50 7 -85 -10z"/>
<path d="M1684 1580 c-12 -4 -31 -21 -44 -37 -18 -24 -21 -37 -18 -87 4 -49 9
-63 32 -83 40 -34 99 -32 137 6 24 25 29 38 29 80 0 62 -16 98 -51 117 -31 16
-54 17 -85 4z m89 -38 c21 -23 31 -73 23 -106 -8 -33 -44 -66 -72 -66 -31 0
-71 36 -79 70 -8 36 10 96 33 110 28 16 78 11 95 -8z"/>
<path d="M1050 1465 c0 -96 3 -115 15 -115 11 0 15 12 15 50 0 43 3 50 20 50
13 0 31 -17 51 -50 17 -27 35 -50 40 -50 15 0 11 14 -20 62 -29 45 -29 47 -10
64 23 21 25 67 3 88 -10 10 -33 16 -65 16 l-49 0 0 -115z m100 75 c13 -25 -1
-56 -30 -65 -30 -9 -40 2 -40 46 0 37 2 39 30 39 19 0 33 -7 40 -20z"/>
<path d="M1230 1500 c0 -117 21 -150 94 -150 56 0 70 27 74 136 3 81 2 94 -12
94 -13 0 -16 -14 -16 -89 0 -98 -11 -121 -55 -121 -40 0 -55 35 -55 127 0 67
-3 83 -15 83 -12 0 -15 -16 -15 -80z"/>
<path d="M1460 1465 c0 -70 4 -115 10 -115 6 0 10 20 10 45 0 43 1 45 30 45
37 0 80 39 80 72 0 46 -26 68 -81 68 l-49 0 0 -115z m88 83 c7 -7 12 -25 12
-40 0 -21 -6 -31 -26 -38 -48 -19 -54 -14 -54 40 0 48 1 50 28 50 15 0 33 -5
40 -12z"/>
<path d="M2131 1260 c-77 -19 -131 -95 -131 -185 0 -139 113 -215 243 -166 26
10 27 12 27 96 l0 85 -55 0 c-48 0 -55 -3 -55 -19 0 -16 8 -20 38 -23 37 -3
37 -3 40 -51 3 -44 1 -48 -25 -58 -37 -14 -99 -5 -125 18 -50 44 -61 129 -28
199 33 68 93 86 188 58 18 -5 22 -2 22 14 0 11 -8 23 -17 26 -40 11 -90 14
-122 6z"/>
<path d="M810 1080 l0 -180 90 0 c83 0 90 1 90 20 0 18 -7 20 -70 20 l-70 0 0
60 0 60 60 0 c57 0 60 1 60 25 0 24 -3 25 -55 25 l-55 0 0 55 0 55 60 0 c53 0
60 2 60 20 0 18 -7 20 -85 20 l-85 0 0 -180z"/>
<path d="M1060 1080 c0 -152 2 -180 15 -180 12 0 15 25 17 148 l3 147 59 -143
c55 -134 70 -161 82 -149 3 2 32 69 64 148 l59 144 1 -147 c0 -141 1 -148 20
-148 19 0 20 7 20 181 l0 180 -26 -3 c-24 -3 -32 -17 -83 -140 -32 -76 -59
-140 -62 -142 -2 -2 -30 61 -63 140 -52 128 -61 144 -82 144 l-24 0 0 -180z"/>
<path d="M1490 1080 l0 -180 91 0 c81 0 90 2 87 18 -3 14 -16 18 -71 20 l-67
3 0 59 0 60 45 1 c68 2 69 3 73 22 3 15 -5 17 -57 17 l-61 0 0 60 0 60 65 0
c58 0 65 2 65 20 0 18 -7 20 -85 20 l-85 0 0 -180z"/>
<path d="M1730 1080 c0 -173 1 -180 20 -180 18 0 20 7 20 75 l0 75 29 0 c36 0
52 -15 94 -91 25 -45 37 -59 55 -59 23 0 23 1 -12 62 -19 33 -42 70 -51 80
-15 18 -14 21 15 48 24 22 30 36 30 68 0 22 -3 48 -6 57 -11 28 -60 45 -129
45 l-65 0 0 -180z m141 130 c14 -8 19 -21 19 -50 0 -47 -27 -70 -82 -70 l-38
0 0 65 0 65 41 0 c22 0 49 -5 60 -10z"/>
<path d="M2350 1080 l0 -180 90 0 c83 0 90 1 90 20 0 18 -7 20 -70 20 l-70 0
0 60 0 60 60 0 c53 0 60 2 60 20 0 18 -7 20 -60 20 l-60 0 0 60 0 60 65 0 c58
0 65 2 65 20 0 18 -7 20 -85 20 l-85 0 0 -180z"/>
<path d="M987 795 c-21 -8 -60 -29 -85 -47 -26 -18 -93 -49 -149 -68 -56 -18
-101 -35 -99 -37 1 -2 38 2 82 8 102 14 272 6 397 -20 216 -45 690 -105 951
-121 270 -15 676 -14 676 3 0 11 -77 15 -412 21 -431 7 -529 15 -773 62 -193
37 -569 124 -579 135 -46 44 173 23 582 -55 371 -71 528 -86 913 -86 234 0
269 2 269 15 0 13 -19 14 -137 9 -345 -16 -827 42 -1336 161 -158 37 -238 42
-300 20z"/>
<path d="M725 590 c-159 -19 -309 -64 -434 -131 -72 -39 -175 -108 -169 -114
2 -1 59 8 128 21 293 54 517 57 720 9 21 -5 27 -2 36 23 15 40 55 64 107 65
23 1 173 -5 332 -12 405 -17 1315 -25 1315 -12 0 8 -72 11 -222 11 -551 0
-1052 38 -1258 95 -163 45 -391 63 -555 45z"/>
<path d="M2877 573 c-11 -10 -8 -103 3 -103 6 0 10 9 10 20 0 11 7 20 15 20 8
0 19 -9 25 -20 6 -11 16 -20 22 -20 6 0 3 11 -6 25 -9 14 -12 25 -7 25 15 0
22 32 10 46 -12 14 -60 19 -72 7z m58 -28 c0 -5 -10 -11 -22 -13 -16 -2 -23 2
-23 13 0 11 7 15 23 13 12 -2 22 -7 22 -13z"/>
<path d="M2981 523 c1 -51 3 -54 9 -23 l7 35 8 -32 c4 -18 13 -33 20 -33 7 0
16 15 20 33 l8 32 7 -35 c6 -31 8 -28 9 23 1 66 -15 74 -34 17 l-11 -33 -10
33 c-16 58 -34 49 -33 -17z"/>
<path d="M1221 343 c1 -21 3 -30 6 -20 5 21 22 22 29 2 4 -8 11 -15 16 -15 7
0 6 5 -1 13 -7 10 -7 17 0 24 16 16 2 33 -27 33 -21 0 -24 -4 -23 -37z m39 17
c0 -5 -7 -10 -15 -10 -8 0 -15 5 -15 10 0 6 7 10 15 10 8 0 15 -4 15 -10z"/>
<path d="M1769 375 c-3 -3 -4 -19 -1 -35 4 -25 9 -30 26 -28 27 4 34 36 9 45
-10 4 -21 10 -24 15 -3 5 -8 6 -10 3z m33 -40 c0 -5 -5 -11 -11 -13 -6 -2 -11
4 -11 13 0 9 5 15 11 13 6 -2 11 -8 11 -13z"/>
<path d="M1863 345 c0 -22 2 -30 4 -17 2 12 2 30 0 40 -3 9 -5 -1 -4 -23z"/>
<path d="M2140 345 c0 -34 13 -47 23 -22 4 10 6 10 6 0 1 -20 21 -15 22 5 0
14 2 14 9 -3 7 -18 9 -18 15 -3 4 9 5 25 3 34 -4 22 -28 31 -28 10 0 -9 -4
-16 -10 -16 -5 0 -10 7 -10 15 0 8 -7 15 -15 15 -10 0 -15 -11 -15 -35z"/>
<path d="M2266 364 c-12 -31 -6 -54 13 -54 28 0 36 18 20 46 -14 28 -24 30
-33 8z m31 -40 c-3 -3 -12 -4 -19 -1 -8 3 -5 6 6 6 11 1 17 -2 13 -5z"/>
<path d="M1327 363 c-4 -3 -7 -17 -7 -30 0 -16 6 -23 20 -23 25 0 36 25 20 45
-14 16 -23 19 -33 8z m30 -39 c-3 -3 -12 -4 -19 -1 -8 3 -5 6 6 6 11 1 17 -2
13 -5z"/>
<path d="M1411 333 c2 -23 2 -24 6 -5 5 27 23 29 23 2 0 -11 5 -20 11 -20 21
0 4 45 -18 48 -20 3 -23 -1 -22 -25z"/>
<path d="M1507 354 c-4 -4 -7 -16 -7 -26 0 -14 6 -19 23 -16 14 2 22 10 22 23
0 20 -25 32 -38 19z m33 -19 c0 -8 -7 -15 -15 -15 -8 0 -15 7 -15 15 0 8 7 15
15 15 8 0 15 -7 15 -15z"/>
<path d="M1590 349 c0 -21 16 -42 28 -35 13 8 22 46 11 46 -5 0 -9 -8 -9 -17
-1 -16 -2 -16 -15 1 -11 14 -15 16 -15 5z"/>
<path d="M1677 338 c-7 -24 3 -41 10 -20 3 6 9 12 14 12 6 0 7 -4 4 -10 -3 -5
-1 -10 4 -10 6 0 11 11 11 25 0 32 -35 35 -43 3z"/>
<path d="M1914 345 c-8 -20 4 -35 27 -35 14 0 19 7 19 25 0 18 -5 25 -20 25
-11 0 -23 -7 -26 -15z"/>
<path d="M2005 350 c-3 -6 2 -13 11 -17 16 -6 16 -7 -1 -13 -15 -5 -16 -8 -3
-12 8 -4 21 -2 29 3 12 8 11 12 -4 23 -14 11 -15 15 -5 19 9 4 7 6 -4 6 -9 1
-20 -4 -23 -9z"/>
<path d="M2354 344 c2 -6 0 -16 -6 -22 -7 -7 -3 -10 13 -9 29 2 35 43 6 43
-10 0 -15 -6 -13 -12z"/>
<path d="M2432 335 c0 -16 2 -22 5 -12 2 9 2 23 0 30 -3 6 -5 -1 -5 -18z"/>
<path d="M2484 345 c-3 -8 -3 -19 1 -25 8 -13 42 -13 51 1 4 8 0 9 -15 4 -16
-5 -21 -2 -21 10 0 11 5 15 15 11 8 -3 15 -1 15 4 0 16 -40 12 -46 -5z"/>
<path d="M2574 345 c-4 -9 -2 -21 4 -27 16 -16 47 -5 47 17 0 26 -42 34 -51
10z m36 -10 c0 -8 -4 -15 -10 -15 -5 0 -10 7 -10 15 0 8 5 15 10 15 6 0 10 -7
10 -15z"/>
</g>
</svg>
